<?xml version="1.0" encoding="UTF-8" standalone="no"?>
<!DOCTYPE svg PUBLIC "-//W3C//DTD SVG 1.0//EN" "http://www.w3.org/TR/2001/PR-SVG-20010719/DTD/svg10.dtd">
<svg width="65cm" height="64cm" viewBox="-241 -1 1285 1272" xmlns="http://www.w3.org/2000/svg" xmlns:xlink="http://www.w3.org/1999/xlink">
  <g>
    <path style="fill: #ffffff" d="M 90.9 20 L 214.5,20 C 231.566,20 245.4,28.9543 245.4,40 C 245.4,51.0457 231.566,60 214.5,60 L 90.9,60 C 73.8344,60 60,51.0457 60,40 C 60,28.9543 73.8344,20 90.9,20z"/>
    <path style="fill: none; fill-opacity:0; stroke-width: 2; stroke: #000000" d="M 90.9 20 L 214.5,20 C 231.566,20 245.4,28.9543 245.4,40 C 245.4,51.0457 231.566,60 214.5,60 L 90.9,60 C 73.8344,60 60,51.0457 60,40 C 60,28.9543 73.8344,20 90.9,20"/>
    <text font-size="12.8" style="fill: #000000;text-anchor:middle;font-family:sans-serif;font-style:normal;font-weight:normal" x="152.7" y="44">
      <tspan x="152.7" y="44">Background Script</tspan>
    </text>
  </g>
  <g>
    <polygon style="fill: #ffffff" points="147.488,360 254.976,413.744 147.488,467.488 40,413.744 "/>
    <polygon style="fill: none; fill-opacity:0; stroke-width: 2; stroke: #000000" points="147.488,360 254.976,413.744 147.488,467.488 40,413.744 "/>
    <text font-size="12.8" style="fill: #000000;text-anchor:middle;font-family:sans-serif;font-style:normal;font-weight:normal" x="147.488" y="401.644">
      <tspan x="147.488" y="401.644">Is Internet</tspan>
      <tspan x="147.488" y="417.644">connection</tspan>
      <tspan x="147.488" y="433.644">available?</tspan>
    </text>
  </g>
  <g>
    <line style="fill: none; fill-opacity:0; stroke-width: 2; stroke: #000000" x1="152.7" y1="60" x2="151.177" y2="89.0151"/>
    <polygon style="fill: #000000" points="146.184,88.753 150.652,99.0014 156.17,89.2773 "/>
    <polygon style="fill: none; fill-opacity:0; stroke-width: 2; stroke: #000000" points="146.184,88.753 150.652,99.0014 156.17,89.2773 "/>
  </g>
  <g>
    <rect style="fill: #ffffff" x="80" y="260" width="125.65" height="54"/>
    <rect style="fill: none; fill-opacity:0; stroke-width: 2; stroke: #000000" x="80" y="260" width="125.65" height="54"/>
    <text font-size="12.8" style="fill: #000000;text-anchor:middle;font-family:sans-serif;font-style:normal;font-weight:normal" x="142.825" y="282.9">
      <tspan x="142.825" y="282.9">Ping Twitter</tspan>
      <tspan x="142.825" y="298.9">(199.59.148.10)</tspan>
    </text>
  </g>
  <g>
    <line style="fill: none; fill-opacity:0; stroke-width: 2; stroke: #000000" x1="142.825" y1="314" x2="146.379" y2="349.056"/>
    <polygon style="fill: #000000" points="141.404,349.56 147.387,359.005 151.353,348.552 "/>
    <polygon style="fill: none; fill-opacity:0; stroke-width: 2; stroke: #000000" points="141.404,349.56 147.387,359.005 151.353,348.552 "/>
  </g>
  <g>
    <path style="fill: #ffffff" d="M -178.338 400 L 29.975,400 C -1.27188,408 -11.6875,412 -11.6875,420 C -11.6875,428 -1.27188,432 29.975,440 L -178.338,440 C -209.584,432 -220,428 -220,420 C -220,412 -209.584,408 -178.338,400z"/>
    <path style="fill: none; fill-opacity:0; stroke-width: 2; stroke: #000000" d="M -178.338 400 L 29.975,400 C -1.27188,408 -11.6875,412 -11.6875,420 C -11.6875,428 -1.27188,432 29.975,440 L -178.338,440 C -209.584,432 -220,428 -220,420 C -220,412 -209.584,408 -178.338,400"/>
    <text font-size="12.8" style="fill: #000000;text-anchor:middle;font-family:sans-serif;font-style:normal;font-weight:normal" x="-95.0125" y="416">
      <tspan x="-95.0125" y="416">Add to tweet queue</tspan>
      <tspan x="-95.0125" y="432">time script was executed</tspan>
    </text>
  </g>
  <g>
    <line style="fill: none; fill-opacity:0; stroke-width: 2; stroke: #000000" x1="40" y1="413.744" x2="-0.767198" y2="418.678"/>
    <polygon style="fill: #000000" points="-1.36799,413.714 -10.6947,419.88 -0.166407,423.642 "/>
    <polygon style="fill: none; fill-opacity:0; stroke-width: 2; stroke: #000000" points="-1.36799,413.714 -10.6947,419.88 -0.166407,423.642 "/>
  </g>
  <text font-size="12.8" style="fill: #000000;text-anchor:start;font-family:sans-serif;font-style:normal;font-weight:normal" x="40" y="440">
    <tspan x="40" y="440">No</tspan>
  </text>
  <g>
    <path style="fill: #ffffff" d="M -140 280 L -58,280 C -35.3563,280 -17,288.954 -17,300 C -17,311.046 -35.3563,320 -58,320 L -140,320 L -140,280z"/>
    <path style="fill: none; fill-opacity:0; stroke-width: 2; stroke: #000000" d="M -140 280 L -58,280 C -35.3563,280 -17,288.954 -17,300 C -17,311.046 -35.3563,320 -58,320 L -140,320 L -140,280"/>
    <text font-size="12.8" style="fill: #000000;text-anchor:middle;font-family:sans-serif;font-style:normal;font-weight:normal" x="-99" y="296">
      <tspan x="-99" y="296">1 min delay</tspan>
      <tspan x="-99" y="312">before retry</tspan>
    </text>
  </g>
  <g>
    <line style="fill: none; fill-opacity:0; stroke-width: 2; stroke: #000000" x1="-74.1812" y1="400" x2="-77.907" y2="330.984"/>
    <polygon style="fill: #000000" points="-72.9143,330.714 -78.4461,320.999 -82.8998,331.254 "/>
    <polygon style="fill: none; fill-opacity:0; stroke-width: 2; stroke: #000000" points="-72.9143,330.714 -78.4461,320.999 -82.8998,331.254 "/>
  </g>
  <g>
    <line style="fill: none; fill-opacity:0; stroke-width: 2; stroke: #000000" x1="-17" y1="300" x2="69.0975" y2="288.461"/>
    <polygon style="fill: #000000" points="69.7616,293.417 79.0089,287.133 68.4333,283.505 "/>
    <polygon style="fill: none; fill-opacity:0; stroke-width: 2; stroke: #000000" points="69.7616,293.417 79.0089,287.133 68.4333,283.505 "/>
  </g>
  <g>
    <rect style="fill: #ffffff" x="80" y="500" width="114.9" height="54"/>
    <rect style="fill: none; fill-opacity:0; stroke-width: 2; stroke: #000000" x="80" y="500" width="114.9" height="54"/>
    <text font-size="12.8" style="fill: #000000;text-anchor:middle;font-family:sans-serif;font-style:normal;font-weight:normal" x="137.45" y="522.9">
      <tspan x="137.45" y="522.9">Process tweet</tspan>
      <tspan x="137.45" y="538.9">queue</tspan>
    </text>
  </g>
  <g>
    <rect style="fill: #ffffff" x="40" y="600" width="177.6" height="54"/>
    <rect style="fill: none; fill-opacity:0; stroke-width: 2; stroke: #000000" x="40" y="600" width="177.6" height="54"/>
    <text font-size="12.8" style="fill: #000000;text-anchor:middle;font-family:sans-serif;font-style:normal;font-weight:normal" x="128.8" y="622.9">
      <tspan x="128.8" y="622.9">Tweet script execution</tspan>
      <tspan x="128.8" y="638.9">time and device uptime</tspan>
    </text>
  </g>
  <g>
    <line style="fill: none; fill-opacity:0; stroke-width: 2; stroke: #000000" x1="147.488" y1="467.488" x2="140.695" y2="489.49"/>
    <polygon style="fill: #000000" points="135.918,488.015 137.745,499.045 145.473,490.965 "/>
    <polygon style="fill: none; fill-opacity:0; stroke-width: 2; stroke: #000000" points="135.918,488.015 137.745,499.045 145.473,490.965 "/>
  </g>
  <g>
    <line style="fill: none; fill-opacity:0; stroke-width: 2; stroke: #000000" x1="137.45" y1="554" x2="130.833" y2="589.189"/>
    <polygon style="fill: #000000" points="125.919,588.265 128.985,599.017 135.747,590.113 "/>
    <polygon style="fill: none; fill-opacity:0; stroke-width: 2; stroke: #000000" points="125.919,588.265 128.985,599.017 135.747,590.113 "/>
  </g>
  <g>
    <polygon style="fill: #ffffff" points="99.6544,680 186.751,680 167.097,734 80,734 "/>
    <polygon style="fill: none; fill-opacity:0; stroke-width: 2; stroke: #000000" points="99.6544,680 186.751,680 167.097,734 80,734 "/>
    <text font-size="12.8" style="fill: #000000;text-anchor:middle;font-family:sans-serif;font-style:normal;font-weight:normal" x="133.376" y="702.9">
      <tspan x="133.376" y="702.9">Retrieve</tspan>
      <tspan x="133.376" y="718.9">tweets</tspan>
    </text>
  </g>
  <g>
    <line style="fill: none; fill-opacity:0; stroke-width: 2; stroke: #000000" x1="128.8" y1="654" x2="137.873" y2="670.378"/>
    <polygon style="fill: #000000" points="133.499,672.801 142.718,679.125 142.246,667.955 "/>
    <polygon style="fill: none; fill-opacity:0; stroke-width: 2; stroke: #000000" points="133.499,672.801 142.718,679.125 142.246,667.955 "/>
  </g>
  <g>
    <polygon style="fill: #ffffff" points="128.838,939.975 217.726,984.419 128.838,1028.86 39.95,984.419 "/>
    <polygon style="fill: none; fill-opacity:0; stroke-width: 2; stroke: #000000" points="128.838,939.975 217.726,984.419 128.838,1028.86 39.95,984.419 "/>
    <text font-size="12.8" style="fill: #000000;text-anchor:middle;font-family:sans-serif;font-style:normal;font-weight:normal" x="128.838" y="980.319">
      <tspan x="128.838" y="980.319">Tweets for</tspan>
      <tspan x="128.838" y="996.319">device?</tspan>
    </text>
  </g>
  <g>
    <rect style="fill: #ffffff" x="60" y="860" width="126.15" height="54"/>
    <rect style="fill: none; fill-opacity:0; stroke-width: 2; stroke: #000000" x="60" y="860" width="126.15" height="54"/>
    <text font-size="12.8" style="fill: #000000;text-anchor:middle;font-family:sans-serif;font-style:normal;font-weight:normal" x="123.075" y="882.9">
      <tspan x="123.075" y="882.9">Parse tweets</tspan>
      <tspan x="123.075" y="898.9">for device name</tspan>
    </text>
  </g>
  <text font-size="12.8" style="fill: #000000;text-anchor:start;font-family:sans-serif;font-style:normal;font-weight:normal" x="160" y="480">
    <tspan x="160" y="480">Yes</tspan>
  </text>
  <g>
    <line style="fill: none; fill-opacity:0; stroke-width: 2; stroke: #000000" x1="123.549" y1="734" x2="137.549" y2="751.425"/>
    <polygon style="fill: #000000" points="133.651,754.557 143.812,759.22 141.446,748.293 "/>
    <polygon style="fill: none; fill-opacity:0; stroke-width: 2; stroke: #000000" points="133.651,754.557 143.812,759.22 141.446,748.293 "/>
  </g>
  <g>
    <line style="fill: none; fill-opacity:0; stroke-width: 2; stroke: #000000" x1="118.96" y1="830" x2="121.58" y2="849.102"/>
    <polygon style="fill: #000000" points="116.627,849.781 122.939,859.009 126.534,848.423 "/>
    <polygon style="fill: none; fill-opacity:0; stroke-width: 2; stroke: #000000" points="116.627,849.781 122.939,859.009 126.534,848.423 "/>
  </g>
  <g>
    <path style="fill: #ffffff" d="M -180 960 L -81.9,960 C -54.8104,960 -32.85,968.954 -32.85,980 C -32.85,991.046 -54.8104,1000 -81.9,1000 L -180,1000 L -180,960z"/>
    <path style="fill: none; fill-opacity:0; stroke-width: 2; stroke: #000000" d="M -180 960 L -81.9,960 C -54.8104,960 -32.85,968.954 -32.85,980 C -32.85,991.046 -54.8104,1000 -81.9,1000 L -180,1000 L -180,960"/>
    <text font-size="12.8" style="fill: #000000;text-anchor:middle;font-family:sans-serif;font-style:normal;font-weight:normal" x="-130.95" y="976">
      <tspan x="-130.95" y="976">Random delay</tspan>
      <tspan x="-130.95" y="992">2-6min</tspan>
    </text>
  </g>
  <g>
    <line style="fill: none; fill-opacity:0; stroke-width: 2; stroke: #000000" x1="40" y1="984.42" x2="-21.8702" y2="980.666"/>
    <polygon style="fill: #000000" points="-21.5674,975.675 -31.8518,980.061 -22.173,985.657 "/>
    <polygon style="fill: none; fill-opacity:0; stroke-width: 2; stroke: #000000" points="-21.5674,975.675 -31.8518,980.061 -22.173,985.657 "/>
  </g>
  <g>
    <polyline style="fill: none; fill-opacity:0; stroke-width: 2; stroke: #000000" points="-180,980 -240,980 -240,231.708 31.5,231.708 31.5,282.5 "/>
    <polygon style="fill: #000000" points="26.5,282.5 31.5,292.5 36.5,282.5 "/>
    <polygon style="fill: none; fill-opacity:0; stroke-width: 2; stroke: #000000" points="26.5,282.5 31.5,292.5 36.5,282.5 "/>
  </g>
  <text font-size="12.8" style="fill: #000000;text-anchor:start;font-family:sans-serif;font-style:normal;font-weight:normal" x="20" y="1000">
    <tspan x="20" y="1000">No</tspan>
  </text>
  <g>
    <rect style="fill: #ffffff" x="60" y="1060" width="117.8" height="70"/>
    <rect style="fill: none; fill-opacity:0; stroke-width: 2; stroke: #000000" x="60" y="1060" width="117.8" height="70"/>
    <text font-size="12.8" style="fill: #000000;text-anchor:middle;font-family:sans-serif;font-style:normal;font-weight:normal" x="118.9" y="1082.9">
      <tspan x="118.9" y="1082.9">Check hash for</tspan>
      <tspan x="118.9" y="1098.9">whitelisted</tspan>
      <tspan x="118.9" y="1114.9">command</tspan>
    </text>
  </g>
  <g>
    <polygon style="fill: #ffffff" points="316.663,1000 393.326,1038.33 316.663,1076.66 240,1038.33 "/>
    <polygon style="fill: none; fill-opacity:0; stroke-width: 2; stroke: #000000" points="316.663,1000 393.326,1038.33 316.663,1076.66 240,1038.33 "/>
    <text font-size="12.8" style="fill: #000000;text-anchor:middle;font-family:sans-serif;font-style:normal;font-weight:normal" x="316.663" y="1042.23">
      <tspan x="316.663" y="1042.23">Is enabled?</tspan>
    </text>
  </g>
  <g>
    <rect style="fill: #ffffff" x="80" y="100" width="141.2" height="54"/>
    <rect style="fill: none; fill-opacity:0; stroke-width: 2; stroke: #000000" x="80" y="100" width="141.2" height="54"/>
    <text font-size="12.8" style="fill: #000000;text-anchor:middle;font-family:sans-serif;font-style:normal;font-weight:normal" x="150.6" y="122.9">
      <tspan x="150.6" y="122.9">Execute command</tspan>
      <tspan x="150.6" y="138.9">queue</tspan>
    </text>
  </g>
  <g>
    <line style="fill: none; fill-opacity:0; stroke-width: 2; stroke: #000000" x1="150.6" y1="154" x2="144.916" y2="169.66"/>
    <polygon style="fill: #000000" points="140.216,167.954 141.504,179.06 149.616,171.366 "/>
    <polygon style="fill: none; fill-opacity:0; stroke-width: 2; stroke: #000000" points="140.216,167.954 141.504,179.06 149.616,171.366 "/>
  </g>
  <g>
    <line style="fill: none; fill-opacity:0; stroke-width: 2; stroke: #000000" x1="128.838" y1="1028.84" x2="122.242" y2="1049.52"/>
    <polygon style="fill: #000000" points="117.479,1048 119.204,1059.05 127.006,1051.04 "/>
    <polygon style="fill: none; fill-opacity:0; stroke-width: 2; stroke: #000000" points="117.479,1048 119.204,1059.05 127.006,1051.04 "/>
  </g>
  <g>
    <line style="fill: none; fill-opacity:0; stroke-width: 2; stroke: #000000" x1="177.8" y1="1095" x2="231.869" y2="1045.74"/>
    <polygon style="fill: #000000" points="235.236,1049.44 239.261,1039.01 228.501,1042.04 "/>
    <polygon style="fill: none; fill-opacity:0; stroke-width: 2; stroke: #000000" points="235.236,1049.44 239.261,1039.01 228.501,1042.04 "/>
  </g>
  <g>
    <path style="fill: #ffffff" d="M 248.925 860 L 393.55,860 C 371.856,868 364.625,872 364.625,880 C 364.625,888 371.856,892 393.55,900 L 248.925,900 C 227.231,892 220,888 220,880 C 220,872 227.231,868 248.925,860z"/>
    <path style="fill: none; fill-opacity:0; stroke-width: 2; stroke: #000000" d="M 248.925 860 L 393.55,860 C 371.856,868 364.625,872 364.625,880 C 364.625,888 371.856,892 393.55,900 L 248.925,900 C 227.231,892 220,888 220,880 C 220,872 227.231,868 248.925,860"/>
    <text font-size="12.8" style="fill: #000000;text-anchor:middle;font-family:sans-serif;font-style:normal;font-weight:normal" x="306.775" y="876">
      <tspan x="306.775" y="876">Add to command</tspan>
      <tspan x="306.775" y="892">queue</tspan>
    </text>
  </g>
  <g>
    <line style="fill: none; fill-opacity:0; stroke-width: 2; stroke: #000000" x1="316.664" y1="1000" x2="320.735" y2="910.989"/>
    <polygon style="fill: #000000" points="325.73,911.217 321.192,900.999 315.741,910.76 "/>
    <polygon style="fill: none; fill-opacity:0; stroke-width: 2; stroke: #000000" points="325.73,911.217 321.192,900.999 315.741,910.76 "/>
  </g>
  <text font-size="12.8" style="fill: #000000;text-anchor:start;font-family:sans-serif;font-style:normal;font-weight:normal" x="400" y="1020">
    <tspan x="400" y="1020">No</tspan>
  </text>
  <text font-size="12.8" style="fill: #000000;text-anchor:start;font-family:sans-serif;font-style:normal;font-weight:normal" x="316.664" y="1000">
    <tspan x="316.664" y="1000">Yes</tspan>
  </text>
  <g>
    <path style="fill: #ffffff" d="M 560 85.3333 L 631.8,60 L 631.8,123.333 L 560,123.333 L 560,85.3333z"/>
    <path style="fill: none; fill-opacity:0; stroke-width: 2; stroke: #000000" d="M 560 85.3333 L 631.8,60 L 631.8,123.333 L 560,123.333 L 560,85.3333"/>
    <text font-size="12.8" style="fill: #000000;text-anchor:middle;font-family:sans-serif;font-style:normal;font-weight:normal" x="595.9" y="100.333">
      <tspan x="595.9" y="100.333">Execute</tspan>
      <tspan x="595.9" y="116.333">Command</tspan>
    </text>
  </g>
  <g>
    <polygon style="fill: #ffffff" points="522.116,624.364 633.286,624.364 607.809,694.364 496.638,694.364 "/>
    <polygon style="fill: none; fill-opacity:0; stroke-width: 2; stroke: #000000" points="522.116,624.364 633.286,624.364 607.809,694.364 496.638,694.364 "/>
    <text font-size="12.8" style="fill: #000000;text-anchor:middle;font-family:sans-serif;font-style:normal;font-weight:normal" x="564.962" y="647.264">
      <tspan x="564.962" y="647.264">Tweet hash</tspan>
      <tspan x="564.962" y="663.264">of new</tspan>
      <tspan x="564.962" y="679.264">command</tspan>
    </text>
  </g>
  <g>
    <line style="fill: none; fill-opacity:0; stroke-width: 2; stroke: #000000" x1="589.75" y1="498.402" x2="581.448" y2="518.863"/>
    <polygon style="fill: #000000" points="576.815,516.983 577.688,528.129 586.081,520.743 "/>
    <polygon style="fill: none; fill-opacity:0; stroke-width: 2; stroke: #000000" points="576.815,516.983 577.688,528.129 586.081,520.743 "/>
  </g>
  <g>
    <polygon style="fill: #ffffff" points="675.271,339.58 751.784,377.837 675.271,416.093 598.758,377.837 "/>
    <polygon style="fill: none; fill-opacity:0; stroke-width: 2; stroke: #000000" points="675.271,339.58 751.784,377.837 675.271,416.093 598.758,377.837 "/>
    <text font-size="12.8" style="fill: #000000;text-anchor:middle;font-family:sans-serif;font-style:normal;font-weight:normal" x="675.271" y="381.737">
      <tspan x="675.271" y="381.737">Command?</tspan>
    </text>
  </g>
  <g>
    <path style="fill: #ffffff" d="M 515.562 529.056 L 639.062,529.056 C 620.537,537.056 614.362,541.056 614.362,549.056 C 614.362,557.056 620.537,561.056 639.062,569.056 L 515.562,569.056 C 497.037,561.056 490.862,557.056 490.862,549.056 C 490.862,541.056 497.037,537.056 515.562,529.056z"/>
    <path style="fill: none; fill-opacity:0; stroke-width: 2; stroke: #000000" d="M 515.562 529.056 L 639.062,529.056 C 620.537,537.056 614.362,541.056 614.362,549.056 C 614.362,557.056 620.537,561.056 639.062,569.056 L 515.562,569.056 C 497.037,561.056 490.862,557.056 490.862,549.056 C 490.862,541.056 497.037,537.056 515.562,529.056"/>
    <text font-size="12.8" style="fill: #000000;text-anchor:middle;font-family:sans-serif;font-style:normal;font-weight:normal" x="564.962" y="545.056">
      <tspan x="564.962" y="545.056">Add command</tspan>
      <tspan x="564.962" y="561.056">and hash</tspan>
    </text>
  </g>
  <g>
    <line style="fill: none; fill-opacity:0; stroke-width: 2; stroke: #000000" x1="577.312" y1="569.056" x2="577.624" y2="613.364"/>
    <polygon style="fill: #000000" points="572.625,613.4 577.695,623.364 582.624,613.329 "/>
    <polygon style="fill: none; fill-opacity:0; stroke-width: 2; stroke: #000000" points="572.625,613.4 577.695,623.364 582.624,613.329 "/>
  </g>
  <g>
    <path style="fill: #ffffff" d="M 719.517 444.204 L 806.892,444.204 C 793.786,452.204 789.417,456.204 789.417,464.204 C 789.417,472.204 793.786,476.204 806.892,484.204 L 719.517,484.204 C 706.411,476.204 702.042,472.204 702.042,464.204 C 702.042,456.204 706.411,452.204 719.517,444.204z"/>
    <path style="fill: none; fill-opacity:0; stroke-width: 2; stroke: #000000" d="M 719.517 444.204 L 806.892,444.204 C 793.786,452.204 789.417,456.204 789.417,464.204 C 789.417,472.204 793.786,476.204 806.892,484.204 L 719.517,484.204 C 706.411,476.204 702.042,472.204 702.042,464.204 C 702.042,456.204 706.411,452.204 719.517,444.204"/>
    <text font-size="12.8" style="fill: #000000;text-anchor:middle;font-family:sans-serif;font-style:normal;font-weight:normal" x="754.467" y="460.204">
      <tspan x="754.467" y="460.204">Removed</tspan>
      <tspan x="754.467" y="476.204">command</tspan>
    </text>
  </g>
  <g>
    <line style="fill: none; fill-opacity:0; stroke-width: 2; stroke: #000000" x1="713.528" y1="396.964" x2="755.233" y2="436.624"/>
    <polygon style="fill: #000000" points="751.787,440.247 762.479,443.515 758.678,433 "/>
    <polygon style="fill: none; fill-opacity:0; stroke-width: 2; stroke: #000000" points="751.787,440.247 762.479,443.515 758.678,433 "/>
  </g>
  <g>
    <line style="fill: none; fill-opacity:0; stroke-width: 2; stroke: #000000" x1="713.528" y1="358.708" x2="831.684" y2="312.415"/>
    <polygon style="fill: #000000" points="833.508,317.07 840.995,308.767 829.86,307.759 "/>
    <polygon style="fill: none; fill-opacity:0; stroke-width: 2; stroke: #000000" points="833.508,317.07 840.995,308.767 829.86,307.759 "/>
  </g>
  <g>
    <polygon style="fill: #ffffff" points="870.433,487.996 947.096,526.328 870.433,564.659 793.77,526.328 "/>
    <polygon style="fill: none; fill-opacity:0; stroke-width: 2; stroke: #000000" points="870.433,487.996 947.096,526.328 870.433,564.659 793.77,526.328 "/>
    <text font-size="12.8" style="fill: #000000;text-anchor:middle;font-family:sans-serif;font-style:normal;font-weight:normal" x="870.433" y="530.228">
      <tspan x="870.433" y="530.228">Is enabled?</tspan>
    </text>
  </g>
  <g>
    <rect style="fill: #ffffff" x="807.172" y="350.836" width="129.35" height="54"/>
    <rect style="fill: none; fill-opacity:0; stroke-width: 2; stroke: #000000" x="807.172" y="350.836" width="129.35" height="54"/>
    <text font-size="12.8" style="fill: #000000;text-anchor:middle;font-family:sans-serif;font-style:normal;font-weight:normal" x="871.847" y="373.736">
      <tspan x="871.847" y="373.736">Check command</tspan>
      <tspan x="871.847" y="389.736">status</tspan>
    </text>
  </g>
  <g>
    <line style="fill: none; fill-opacity:0; stroke-width: 2; stroke: #000000" x1="751.784" y1="377.836" x2="796.172" y2="377.836"/>
    <polygon style="fill: #000000" points="796.172,382.836 806.172,377.836 796.172,372.836 "/>
    <polygon style="fill: none; fill-opacity:0; stroke-width: 2; stroke: #000000" points="796.172,382.836 806.172,377.836 796.172,372.836 "/>
  </g>
  <g>
    <line style="fill: none; fill-opacity:0; stroke-width: 2; stroke: #000000" x1="871.848" y1="404.836" x2="870.619" y2="476.998"/>
    <polygon style="fill: #000000" points="865.62,476.912 870.449,486.996 875.619,477.083 "/>
    <polygon style="fill: none; fill-opacity:0; stroke-width: 2; stroke: #000000" points="865.62,476.912 870.449,486.996 875.619,477.083 "/>
  </g>
  <g>
    <rect style="fill: #ffffff" x="521.926" y="428.402" width="135.65" height="70"/>
    <rect style="fill: none; fill-opacity:0; stroke-width: 2; stroke: #000000" x="521.926" y="428.402" width="135.65" height="70"/>
    <text font-size="12.8" style="fill: #000000;text-anchor:middle;font-family:sans-serif;font-style:normal;font-weight:normal" x="589.751" y="451.302">
      <tspan x="589.751" y="451.302">Hash command</tspan>
      <tspan x="589.751" y="467.302">with device name</tspan>
      <tspan x="589.751" y="483.302">as salt</tspan>
    </text>
  </g>
  <g>
    <line style="fill: none; fill-opacity:0; stroke-width: 2; stroke: #000000" x1="637.014" y1="396.964" x2="598.909" y2="422.31"/>
    <polygon style="fill: #000000" points="596.14,418.147 590.583,427.848 601.678,426.473 "/>
    <polygon style="fill: none; fill-opacity:0; stroke-width: 2; stroke: #000000" points="596.14,418.147 590.583,427.848 601.678,426.473 "/>
  </g>
  <g>
    <path style="fill: #ffffff" d="M 721.517 616.738 L 853.392,616.738 C 833.611,624.738 827.017,628.738 827.017,636.738 C 827.017,644.738 833.611,648.738 853.392,656.738 L 721.517,656.738 C 701.736,648.738 695.142,644.738 695.142,636.738 C 695.142,628.738 701.736,624.738 721.517,616.738z"/>
    <path style="fill: none; fill-opacity:0; stroke-width: 2; stroke: #000000" d="M 721.517 616.738 L 853.392,616.738 C 833.611,624.738 827.017,628.738 827.017,636.738 C 827.017,644.738 833.611,648.738 853.392,656.738 L 721.517,656.738 C 701.736,648.738 695.142,644.738 695.142,636.738 C 695.142,628.738 701.736,624.738 721.517,616.738"/>
    <text font-size="12.8" style="fill: #000000;text-anchor:middle;font-family:sans-serif;font-style:normal;font-weight:normal" x="774.267" y="632.738">
      <tspan x="774.267" y="632.738">Mark command</tspan>
      <tspan x="774.267" y="648.738">as disabled</tspan>
    </text>
  </g>
  <g>
    <path style="fill: #ffffff" d="M 906.375 620 L 1038.25,620 C 1018.47,628 1011.88,632 1011.88,640 C 1011.88,648 1018.47,652 1038.25,660 L 906.375,660 C 886.594,652 880,648 880,640 C 880,632 886.594,628 906.375,620z"/>
    <path style="fill: none; fill-opacity:0; stroke-width: 2; stroke: #000000" d="M 906.375 620 L 1038.25,620 C 1018.47,628 1011.88,632 1011.88,640 C 1011.88,648 1018.47,652 1038.25,660 L 906.375,660 C 886.594,652 880,648 880,640 C 880,632 886.594,628 906.375,620"/>
    <text font-size="12.8" style="fill: #000000;text-anchor:middle;font-family:sans-serif;font-style:normal;font-weight:normal" x="959.125" y="636">
      <tspan x="959.125" y="636">Mark command</tspan>
      <tspan x="959.125" y="652">as enbled</tspan>
    </text>
  </g>
  <g>
    <line style="fill: none; fill-opacity:0; stroke-width: 2; stroke: #000000" x1="832.102" y1="545.494" x2="762.59" y2="609.3"/>
    <polygon style="fill: #000000" points="759.209,605.616 755.223,616.062 765.971,612.983 "/>
    <polygon style="fill: none; fill-opacity:0; stroke-width: 2; stroke: #000000" points="759.209,605.616 755.223,616.062 765.971,612.983 "/>
  </g>
  <g>
    <line style="fill: none; fill-opacity:0; stroke-width: 2; stroke: #000000" x1="908.764" y1="545.494" x2="965.174" y2="611.631"/>
    <polygon style="fill: #000000" points="961.369,614.875 971.663,619.239 968.978,608.386 "/>
    <polygon style="fill: none; fill-opacity:0; stroke-width: 2; stroke: #000000" points="961.369,614.875 971.663,619.239 968.978,608.386 "/>
  </g>
  <text font-size="12.8" style="fill: #000000;text-anchor:start;font-family:sans-serif;font-style:normal;font-weight:normal" x="922.558" y="550.27">
    <tspan x="922.558" y="550.27">No</tspan>
  </text>
  <text font-size="12.8" style="fill: #000000;text-anchor:start;font-family:sans-serif;font-style:normal;font-weight:normal" x="829.22" y="554.512">
    <tspan x="829.22" y="554.512">Yes</tspan>
  </text>
  <text font-size="12.8" style="fill: #000000;text-anchor:start;font-family:sans-serif;font-style:normal;font-weight:normal" x="721.926" y="348.402">
    <tspan x="721.926" y="348.402">List</tspan>
  </text>
  <text font-size="12.8" style="fill: #000000;text-anchor:start;font-family:sans-serif;font-style:normal;font-weight:normal" x="631.23" y="413.09">
    <tspan x="631.23" y="413.09">Add</tspan>
  </text>
  <text font-size="12.8" style="fill: #000000;text-anchor:start;font-family:sans-serif;font-style:normal;font-weight:normal" x="731.638" y="410.262">
    <tspan x="731.638" y="410.262">Delete</tspan>
  </text>
  <text font-size="12.8" style="fill: #000000;text-anchor:start;font-family:sans-serif;font-style:normal;font-weight:normal" x="748.61" y="367.836">
    <tspan x="748.61" y="367.836">Toggle</tspan>
  </text>
  <g>
    <line style="fill: none; fill-opacity:0; stroke-width: 2; stroke: #000000" x1="595.9" y1="123.333" x2="598.646" y2="149.062"/>
    <polygon style="fill: #000000" points="593.675,149.593 599.708,159.006 603.618,148.531 "/>
    <polygon style="fill: none; fill-opacity:0; stroke-width: 2; stroke: #000000" points="593.675,149.593 599.708,159.006 603.618,148.531 "/>
  </g>
  <g>
    <path style="fill: #ffffff" d="M 860.516 288.402 L 953.466,288.402 C 967.409,296.402 972.056,300.402 972.056,308.402 C 972.056,316.402 967.409,320.402 953.466,328.402 L 860.516,328.402 L 841.926,308.402 L 860.516,288.402z"/>
    <path style="fill: none; fill-opacity:0; stroke-width: 2; stroke: #000000" d="M 860.516 288.402 L 953.466,288.402 C 967.409,296.402 972.056,300.402 972.056,308.402 C 972.056,316.402 967.409,320.402 953.466,328.402 L 860.516,328.402 L 841.926,308.402 L 860.516,288.402"/>
    <text font-size="12.8" style="fill: #000000;text-anchor:middle;font-family:sans-serif;font-style:normal;font-weight:normal" x="906.991" y="304.402">
      <tspan x="906.991" y="304.402">List table</tspan>
      <tspan x="906.991" y="320.402">of commands</tspan>
    </text>
  </g>
  <g>
    <path style="fill: #ffffff" d="M 97.475 180 L 184.85,180 C 171.744,190.8 167.375,196.2 167.375,207 C 167.375,217.8 171.744,223.2 184.85,234 L 97.475,234 C 84.3688,223.2 80,217.8 80,207 C 80,196.2 84.3688,190.8 97.475,180z"/>
    <path style="fill: none; fill-opacity:0; stroke-width: 2; stroke: #000000" d="M 97.475 180 L 184.85,180 C 171.744,190.8 167.375,196.2 167.375,207 C 167.375,217.8 171.744,223.2 184.85,234 L 97.475,234 C 84.3688,223.2 80,217.8 80,207 C 80,196.2 84.3688,190.8 97.475,180"/>
    <text font-size="12.8" style="fill: #000000;text-anchor:middle;font-family:sans-serif;font-style:normal;font-weight:normal" x="132.425" y="195">
      <tspan x="132.425" y="195">Save to</tspan>
      <tspan x="132.425" y="211">command</tspan>
      <tspan x="132.425" y="227">history</tspan>
    </text>
  </g>
  <g>
    <line style="fill: none; fill-opacity:0; stroke-width: 2; stroke: #000000" x1="141.163" y1="234" x2="142.123" y2="249.022"/>
    <polygon style="fill: #000000" points="137.133,249.341 142.761,259.002 147.113,248.703 "/>
    <polygon style="fill: none; fill-opacity:0; stroke-width: 2; stroke: #000000" points="137.133,249.341 142.761,259.002 147.113,248.703 "/>
  </g>
  <g>
    <line style="fill: none; fill-opacity:0; stroke-width: 2; stroke: #000000" x1="321.238" y1="860" x2="222.687" y2="137.899"/>
    <polygon style="fill: #000000" points="227.642,137.223 221.335,127.991 217.733,138.575 "/>
    <polygon style="fill: none; fill-opacity:0; stroke-width: 2; stroke: #000000" points="227.642,137.223 221.335,127.991 217.733,138.575 "/>
  </g>
  <g>
    <polyline style="fill: none; fill-opacity:0; stroke-width: 2; stroke: #000000" points="393.326,1038.33 420,1038.33 420,493.5 282.218,493.5 "/>
    <polygon style="fill: #000000" points="282.218,488.5 272.218,493.5 282.218,498.5 "/>
    <polygon style="fill: none; fill-opacity:0; stroke-width: 2; stroke: #000000" points="282.218,488.5 272.218,493.5 282.218,498.5 "/>
  </g>
  <text font-size="12.8" style="fill: #000000;text-anchor:start;font-family:sans-serif;font-style:normal;font-weight:normal" x="571.832" y="370.324">
    <tspan x="571.832" y="370.324">Run</tspan>
  </text>
  <text font-size="12.8" style="fill: #000000;text-anchor:start;font-family:sans-serif;font-style:normal;font-weight:normal" x="480" y="960">
    <tspan x="480" y="960">Commands:</tspan>
    <tspan x="480" y="976">Reboot</tspan>
    <tspan x="480" y="992">Uptime</tspan>
    <tspan x="480" y="1008">Last command</tspan>
    <tspan x="480" y="1024">Tweet service status</tspan>
  </text>
  <text font-size="12.8" style="fill: #000000;text-anchor:start;font-family:sans-serif;font-style:normal;font-weight:normal" x="140" y="940">
    <tspan x="140" y="940">Yes</tspan>
  </text>
  <g>
    <polyline style="fill: none; fill-opacity:0; stroke-width: 2; stroke: #000000" points="598.758,377.836 481.926,377.836 481.926,880 375.624,880 "/>
    <polygon style="fill: #000000" points="375.624,875 365.624,880 375.624,885 "/>
    <polygon style="fill: none; fill-opacity:0; stroke-width: 2; stroke: #000000" points="375.624,875 365.624,880 375.624,885 "/>
  </g>
  <g>
    <polygon style="fill: #ffffff" points="85.4779,760 203.398,760 177.921,830 60,830 "/>
    <polygon style="fill: none; fill-opacity:0; stroke-width: 2; stroke: #000000" points="85.4779,760 203.398,760 177.921,830 60,830 "/>
    <text font-size="12.8" style="fill: #000000;text-anchor:middle;font-family:sans-serif;font-style:normal;font-weight:normal" x="131.699" y="782.9">
      <tspan x="131.699" y="782.9">Read device</tspan>
      <tspan x="131.699" y="798.9">name from</tspan>
      <tspan x="131.699" y="814.9">config file</tspan>
    </text>
  </g>
  <g>
    <line style="fill: none; fill-opacity:0; stroke-width: 2; stroke: #000000" x1="123.075" y1="914" x2="126.458" y2="929.261"/>
    <polygon style="fill: #000000" points="121.576,930.343 128.622,939.024 131.339,928.179 "/>
    <polygon style="fill: none; fill-opacity:0; stroke-width: 2; stroke: #000000" points="121.576,930.343 128.622,939.024 131.339,928.179 "/>
  </g>
  <g>
    <path style="fill: #ffffff" d="M 655.763 900 L 734.575,900 C 722.753,908 718.813,912 718.813,920 C 718.813,928 722.753,932 734.575,940 L 655.763,940 C 643.941,932 640,928 640,920 C 640,912 643.941,908 655.763,900z"/>
    <path style="fill: none; fill-opacity:0; stroke-width: 2; stroke: #000000" d="M 655.763 900 L 734.575,900 C 722.753,908 718.813,912 718.813,920 C 718.813,928 722.753,932 734.575,940 L 655.763,940 C 643.941,932 640,928 640,920 C 640,912 643.941,908 655.763,900"/>
    <text font-size="12.8" style="fill: #000000;text-anchor:middle;font-family:sans-serif;font-style:normal;font-weight:normal" x="687.288" y="916">
      <tspan x="687.288" y="916">Store to</tspan>
      <tspan x="687.288" y="932">temp file</tspan>
    </text>
  </g>
  <g>
    <path style="fill: #ffffff" d="M 543.362 0 L 636.812,0 C 649.715,0 660.175,8.9543 660.175,20 C 660.175,31.0457 649.715,40 636.812,40 L 543.362,40 C 530.46,40 520,31.0457 520,20 C 520,8.9543 530.46,0 543.362,0z"/>
    <path style="fill: none; fill-opacity:0; stroke-width: 2; stroke: #000000" d="M 543.362 0 L 636.812,0 C 649.715,0 660.175,8.9543 660.175,20 C 660.175,31.0457 649.715,40 636.812,40 L 543.362,40 C 530.46,40 520,31.0457 520,20 C 520,8.9543 530.46,0 543.362,0"/>
    <text font-size="12.8" style="fill: #000000;text-anchor:middle;font-family:sans-serif;font-style:normal;font-weight:normal" x="590.087" y="24">
      <tspan x="590.087" y="24">Control Script</tspan>
    </text>
  </g>
  <g>
    <line style="fill: none; fill-opacity:0; stroke-width: 2; stroke: #000000" x1="590.088" y1="40" x2="593.973" y2="61.8367"/>
    <polygon style="fill: #000000" points="589.05,62.7125 595.725,71.6821 598.896,60.9608 "/>
    <polygon style="fill: none; fill-opacity:0; stroke-width: 2; stroke: #000000" points="589.05,62.7125 595.725,71.6821 598.896,60.9608 "/>
  </g>
  <g>
    <polygon style="fill: #ffffff" points="599.813,160 679.626,199.907 599.813,239.813 520,199.907 "/>
    <polygon style="fill: none; fill-opacity:0; stroke-width: 2; stroke: #000000" points="599.813,160 679.626,199.907 599.813,239.813 520,199.907 "/>
    <text font-size="12.8" style="fill: #000000;text-anchor:middle;font-family:sans-serif;font-style:normal;font-weight:normal" x="599.813" y="195.807">
      <tspan x="599.813" y="195.807">Display</tspan>
      <tspan x="599.813" y="211.807">menu?</tspan>
    </text>
  </g>
  <g>
    <path style="fill: #ffffff" d="M 718.76 80 L 812.56,80 C 826.63,88 831.32,92 831.32,100 C 831.32,108 826.63,112 812.56,120 L 718.76,120 L 700,100 L 718.76,80z"/>
    <path style="fill: none; fill-opacity:0; stroke-width: 2; stroke: #000000" d="M 718.76 80 L 812.56,80 C 826.63,88 831.32,92 831.32,100 C 831.32,108 826.63,112 812.56,120 L 718.76,120 L 700,100 L 718.76,80"/>
    <text font-size="12.8" style="fill: #000000;text-anchor:middle;font-family:sans-serif;font-style:normal;font-weight:normal" x="765.66" y="96">
      <tspan x="765.66" y="96">Display menu</tspan>
      <tspan x="765.66" y="112">options</tspan>
    </text>
  </g>
  <g>
    <path style="fill: #ffffff" d="M 880 96 L 976.75,80 L 976.75,120 L 880,120 L 880,96z"/>
    <path style="fill: none; fill-opacity:0; stroke-width: 2; stroke: #000000" d="M 880 96 L 976.75,80 L 976.75,120 L 880,120 L 880,96"/>
    <text font-size="12.8" style="fill: #000000;text-anchor:middle;font-family:sans-serif;font-style:normal;font-weight:normal" x="928.375" y="112">
      <tspan x="928.375" y="112">User selection</tspan>
    </text>
  </g>
  <g>
    <line style="fill: none; fill-opacity:0; stroke-width: 2; stroke: #000000" x1="599.814" y1="239.814" x2="668.636" y2="330.807"/>
    <polygon style="fill: #000000" points="664.649,333.823 674.669,338.782 672.624,327.791 "/>
    <polygon style="fill: none; fill-opacity:0; stroke-width: 2; stroke: #000000" points="664.649,333.823 674.669,338.782 672.624,327.791 "/>
  </g>
  <g>
    <line style="fill: none; fill-opacity:0; stroke-width: 2; stroke: #000000" x1="679.626" y1="199.907" x2="697.802" y2="110.778"/>
    <polygon style="fill: #000000" points="702.701,111.777 699.8,100.98 692.903,109.779 "/>
    <polygon style="fill: none; fill-opacity:0; stroke-width: 2; stroke: #000000" points="702.701,111.777 699.8,100.98 692.903,109.779 "/>
  </g>
  <g>
    <line style="fill: none; fill-opacity:0; stroke-width: 2; stroke: #000000" x1="831.32" y1="100" x2="869.146" y2="106.216"/>
    <polygon style="fill: #000000" points="868.335,111.15 879.013,107.838 869.956,101.282 "/>
    <polygon style="fill: none; fill-opacity:0; stroke-width: 2; stroke: #000000" points="868.335,111.15 879.013,107.838 869.956,101.282 "/>
  </g>
  <g>
    <polygon style="fill: #ffffff" points="619.654,720 753.501,720 733.847,774 600,774 "/>
    <polygon style="fill: none; fill-opacity:0; stroke-width: 2; stroke: #000000" points="619.654,720 753.501,720 733.847,774 600,774 "/>
    <text font-size="12.8" style="fill: #000000;text-anchor:middle;font-family:sans-serif;font-style:normal;font-weight:normal" x="676.751" y="742.9">
      <tspan x="676.751" y="742.9">Read command</tspan>
      <tspan x="676.751" y="758.9">from whitelist</tspan>
    </text>
  </g>
  <g>
    <path style="fill: #ffffff" d="M 621.96 800 L 731.76,800 L 753.72,827 L 731.76,854 L 621.96,854 L 600,827 L 621.96,800z"/>
    <path style="fill: none; fill-opacity:0; stroke-width: 2; stroke: #000000" d="M 621.96 800 L 731.76,800 L 753.72,827 L 731.76,854 L 621.96,854 L 600,827 L 621.96,800"/>
    <text font-size="12.8" style="fill: #000000;text-anchor:middle;font-family:sans-serif;font-style:normal;font-weight:normal" x="676.86" y="815">
      <tspan x="676.86" y="815">Hash command</tspan>
      <tspan x="676.86" y="831">with new device</tspan>
      <tspan x="676.86" y="847">name as salt</tspan>
    </text>
  </g>
  <g>
    <polygon style="fill: #ffffff" points="692.363,980 804.726,1036.18 692.363,1092.36 580,1036.18 "/>
    <polygon style="fill: none; fill-opacity:0; stroke-width: 2; stroke: #000000" points="692.363,980 804.726,1036.18 692.363,1092.36 580,1036.18 "/>
    <text font-size="12.8" style="fill: #000000;text-anchor:middle;font-family:sans-serif;font-style:normal;font-weight:normal" x="692.363" y="1024.08">
      <tspan x="692.363" y="1024.08">EOF</tspan>
      <tspan x="692.363" y="1040.08">of command</tspan>
      <tspan x="692.363" y="1056.08">file?</tspan>
    </text>
  </g>
  <g>
    <line style="fill: none; fill-opacity:0; stroke-width: 2; stroke: #000000" x1="675.272" y1="416.092" x2="686.169" y2="709.008"/>
    <polygon style="fill: #000000" points="681.173,709.193 686.541,719.001 691.166,708.822 "/>
    <polygon style="fill: none; fill-opacity:0; stroke-width: 2; stroke: #000000" points="681.173,709.193 686.541,719.001 691.166,708.822 "/>
  </g>
  <g>
    <path style="fill: #ffffff" d="M 861.31 160 L 967.86,160 C 983.842,168 989.17,172 989.17,180 C 989.17,188 983.842,192 967.86,200 L 861.31,200 L 840,180 L 861.31,160z"/>
    <path style="fill: none; fill-opacity:0; stroke-width: 2; stroke: #000000" d="M 861.31 160 L 967.86,160 C 983.842,168 989.17,172 989.17,180 C 989.17,188 983.842,192 967.86,200 L 861.31,200 L 840,180 L 861.31,160"/>
    <text font-size="12.8" style="fill: #000000;text-anchor:middle;font-family:sans-serif;font-style:normal;font-weight:normal" x="914.585" y="176">
      <tspan x="914.585" y="176">Prompt for</tspan>
      <tspan x="914.585" y="192">additional input</tspan>
    </text>
  </g>
  <g>
    <path style="fill: #ffffff" d="M 740 194.667 L 816.75,180 L 816.75,216.667 L 740,216.667 L 740,194.667z"/>
    <path style="fill: none; fill-opacity:0; stroke-width: 2; stroke: #000000" d="M 740 194.667 L 816.75,180 L 816.75,216.667 L 740,216.667 L 740,194.667"/>
    <text font-size="12.8" style="fill: #000000;text-anchor:middle;font-family:sans-serif;font-style:normal;font-weight:normal" x="778.375" y="209.667">
      <tspan x="778.375" y="209.667">User input</tspan>
    </text>
  </g>
  <g>
    <line style="fill: none; fill-opacity:0; stroke-width: 2; stroke: #000000" x1="928.376" y1="120" x2="931.897" y2="148.094"/>
    <polygon style="fill: #000000" points="926.935,148.716 933.14,158.017 936.858,147.472 "/>
    <polygon style="fill: none; fill-opacity:0; stroke-width: 2; stroke: #000000" points="926.935,148.716 933.14,158.017 936.858,147.472 "/>
  </g>
  <g>
    <line style="fill: none; fill-opacity:0; stroke-width: 2; stroke: #000000" x1="840" y1="180" x2="825.388" y2="191.522"/>
    <polygon style="fill: #000000" points="822.292,187.596 817.535,197.714 828.484,195.449 "/>
    <polygon style="fill: none; fill-opacity:0; stroke-width: 2; stroke: #000000" points="822.292,187.596 817.535,197.714 828.484,195.449 "/>
  </g>
  <g>
    <line style="fill: none; fill-opacity:0; stroke-width: 2; stroke: #000000" x1="778.376" y1="216.666" x2="647.307" y2="284.632"/>
    <polygon style="fill: #000000" points="645.005,280.194 638.43,289.236 649.609,289.071 "/>
    <polygon style="fill: none; fill-opacity:0; stroke-width: 2; stroke: #000000" points="645.005,280.194 638.43,289.236 649.609,289.071 "/>
  </g>
  <g>
    <line style="fill: none; fill-opacity:0; stroke-width: 2; stroke: #000000" x1="666.924" y1="774" x2="672.933" y2="789.725"/>
    <polygon style="fill: #000000" points="668.263,791.51 676.503,799.066 677.604,787.94 "/>
    <polygon style="fill: none; fill-opacity:0; stroke-width: 2; stroke: #000000" points="668.263,791.51 676.503,799.066 677.604,787.94 "/>
  </g>
  <g>
    <line style="fill: none; fill-opacity:0; stroke-width: 2; stroke: #000000" x1="676.86" y1="854" x2="675.799" y2="889.005"/>
    <polygon style="fill: #000000" points="670.801,888.854 675.496,899 680.797,889.156 "/>
    <polygon style="fill: none; fill-opacity:0; stroke-width: 2; stroke: #000000" points="670.801,888.854 675.496,899 680.797,889.156 "/>
  </g>
  <g>
    <line style="fill: none; fill-opacity:0; stroke-width: 2; stroke: #000000" x1="695.168" y1="940" x2="693.133" y2="969.027"/>
    <polygon style="fill: #000000" points="688.145,968.677 692.434,979.002 698.121,969.377 "/>
    <polygon style="fill: none; fill-opacity:0; stroke-width: 2; stroke: #000000" points="688.145,968.677 692.434,979.002 698.121,969.377 "/>
  </g>
  <g>
    <polyline style="fill: none; fill-opacity:0; stroke-width: 2; stroke: #000000" points="804.726,1036.18 804.726,747 754.674,747 "/>
    <polygon style="fill: #000000" points="754.674,742 744.674,747 754.674,752 "/>
    <polygon style="fill: none; fill-opacity:0; stroke-width: 2; stroke: #000000" points="754.674,742 744.674,747 754.674,752 "/>
  </g>
  <g>
    <rect style="fill: #ffffff" x="620" y="1200" width="110.2" height="70"/>
    <rect style="fill: none; fill-opacity:0; stroke-width: 2; stroke: #000000" x="620" y="1200" width="110.2" height="70"/>
    <text font-size="12.8" style="fill: #000000;text-anchor:middle;font-family:sans-serif;font-style:normal;font-weight:normal" x="675.1" y="1222.9">
      <tspan x="675.1" y="1222.9">Overwrite old</tspan>
      <tspan x="675.1" y="1238.9">whitelist file</tspan>
      <tspan x="675.1" y="1254.9">with temp file</tspan>
    </text>
  </g>
  <g>
    <path style="fill: #ffffff" d="M 625.312 1120 L 751.875,1120 C 732.891,1128 726.562,1132 726.562,1140 C 726.562,1148 732.891,1152 751.875,1160 L 625.312,1160 C 606.328,1152 600,1148 600,1140 C 600,1132 606.328,1128 625.312,1120z"/>
    <path style="fill: none; fill-opacity:0; stroke-width: 2; stroke: #000000" d="M 625.312 1120 L 751.875,1120 C 732.891,1128 726.562,1132 726.562,1140 C 726.562,1148 732.891,1152 751.875,1160 L 625.312,1160 C 606.328,1152 600,1148 600,1140 C 600,1132 606.328,1128 625.312,1120"/>
    <text font-size="12.8" style="fill: #000000;text-anchor:middle;font-family:sans-serif;font-style:normal;font-weight:normal" x="675.938" y="1136">
      <tspan x="675.938" y="1136">Save device</tspan>
      <tspan x="675.938" y="1152">name in config</tspan>
    </text>
  </g>
  <g>
    <line style="fill: none; fill-opacity:0; stroke-width: 2; stroke: #000000" x1="692.364" y1="1092.36" x2="690.081" y2="1109.1"/>
    <polygon style="fill: #000000" points="685.127,1108.43 688.729,1119.01 695.035,1109.78 "/>
    <polygon style="fill: none; fill-opacity:0; stroke-width: 2; stroke: #000000" points="685.127,1108.43 688.729,1119.01 695.035,1109.78 "/>
  </g>
  <g>
    <line style="fill: none; fill-opacity:0; stroke-width: 2; stroke: #000000" x1="688.594" y1="1160" x2="678.616" y2="1189.58"/>
    <polygon style="fill: #000000" points="673.878,1187.98 675.42,1199.05 683.354,1191.18 "/>
    <polygon style="fill: none; fill-opacity:0; stroke-width: 2; stroke: #000000" points="673.878,1187.98 675.42,1199.05 683.354,1191.18 "/>
  </g>
  <text font-size="12.8" style="fill: #000000;text-anchor:start;font-family:sans-serif;font-style:normal;font-weight:normal" x="800" y="1040">
    <tspan x="800" y="1040">No</tspan>
  </text>
  <text font-size="12.8" style="fill: #000000;text-anchor:start;font-family:sans-serif;font-style:normal;font-weight:normal" x="700" y="1100">
    <tspan x="700" y="1100">Yes</tspan>
  </text>
  <text font-size="12.8" style="fill: #000000;text-anchor:start;font-family:sans-serif;font-style:normal;font-weight:normal" x="680" y="420">
    <tspan x="680" y="420">Rename</tspan>
  </text>
</svg>
